<svg width="242" height="105" viewBox="0 0 242 105" fill="none" xmlns="http://www.w3.org/2000/svg">
<path d="M32 75.7674L19.5216 75.8456L29.5356 81.7914L29.5356 85.8596L19.9519 91.8054L32 91.8054L32 100.216L4.61795 100.216L4.61795 92.6269L19.2087 83.7082L4.61795 75.0241L4.61795 67.4354L32 67.3572L32 75.7674ZM17.5657 44.7826L17.5657 36.7635L29.1444 36.7635C30.2658 38.3804 31.1264 40.258 31.7262 42.3964C32.326 44.5348 32.6259 46.6341 32.6259 48.6943C32.6259 51.615 32.0261 54.2359 30.8265 56.5569C29.6008 58.8778 27.9057 60.7033 25.7412 62.0333C23.5507 63.3372 21.0733 63.9891 18.309 63.9891C15.5447 63.9891 13.0803 63.3372 10.9158 62.0333C8.72526 60.7033 7.03018 58.8648 5.83059 56.5177C4.60491 54.1446 3.99208 51.4716 3.99208 48.4987C3.99208 45.8127 4.44844 43.4135 5.36118 41.3011C6.24784 39.1627 7.55174 37.3894 9.2729 35.9812L14.4755 41.8879C12.4675 43.6091 11.4635 45.6562 11.4635 48.0293C11.4635 50.0634 12.0763 51.6802 13.302 52.8798C14.5276 54.0794 16.1966 54.6792 18.309 54.6792C20.3691 54.6792 22.0251 54.0925 23.2769 52.919C24.5286 51.7194 25.1545 50.1286 25.1545 48.1467C25.1545 46.9731 24.9328 45.8518 24.4895 44.7826L17.5657 44.7826ZM27.2277 14.1712L27.2277 24.5764L32 26.4149L32 35.803L4.61795 23.8332L4.61795 14.758L32 2.78812L32 12.3327L27.2277 14.1712ZM20.5778 16.7138L13.6931 19.3738L20.5778 22.0338L20.5778 16.7138Z" fill="#FDF8E5"/>
<path d="M51.0869 31.6227C48.8294 31.6227 46.6239 31.3762 44.4703 30.8832C42.3426 30.3643 40.5911 29.6767 39.2159 28.8204L42.1739 22.126C43.4713 22.8785 44.9244 23.4882 46.5331 23.9553C48.1418 24.3964 49.6857 24.6169 51.1647 24.6169C52.4361 24.6169 53.3443 24.5002 53.8892 24.2667C54.4341 24.0072 54.7065 23.6309 54.7065 23.1379C54.7065 22.5671 54.3433 22.139 53.6167 21.8535C52.9162 21.5681 51.7485 21.2568 50.1138 20.9194C48.0121 20.4783 46.2606 20.0113 44.8595 19.5183C43.4583 18.9993 42.2388 18.169 41.2009 17.0273C40.163 15.8597 39.6441 14.2899 39.6441 12.3179C39.6441 10.6054 40.1241 9.04852 41.0841 7.64736C42.0442 6.2462 43.4713 5.14344 45.3655 4.33907C47.2856 3.5347 49.6079 3.13252 52.3323 3.13252C54.2005 3.13252 56.0298 3.34009 57.8202 3.75525C59.6365 4.14446 61.2323 4.72828 62.6075 5.5067L59.8441 12.1622C57.1715 10.8129 54.6417 10.1383 52.2545 10.1383C49.8933 10.1383 48.7127 10.7092 48.7127 11.8508C48.7127 12.3957 49.063 12.8109 49.7635 13.0963C50.4641 13.3558 51.6188 13.6412 53.2275 13.9526C55.3033 14.3418 57.0548 14.7959 58.4819 15.3148C59.909 15.8078 61.1415 16.6252 62.1794 17.7668C63.2432 18.9085 63.7751 20.4654 63.7751 22.4374C63.7751 24.1499 63.2951 25.7067 62.3351 27.1079C61.375 28.4831 59.9349 29.5859 58.0148 30.4162C56.1207 31.2206 53.8113 31.6227 51.0869 31.6227ZM72.4244 10.8778H64.4456V3.75525H89.5886V10.8778H81.6098V31H72.4244V10.8778ZM103.651 24.1499H101.16V31H91.9744V3.75525H105.091C107.608 3.75525 109.8 4.17041 111.668 5.00073C113.537 5.83104 114.977 7.02462 115.989 8.58146C117.001 10.1383 117.507 11.9546 117.507 14.0304C117.507 15.9765 117.065 17.676 116.183 19.1291C115.301 20.5821 114.03 21.7368 112.369 22.593L118.09 31H108.282L103.651 24.1499ZM108.243 14.0304C108.243 13.0185 107.932 12.24 107.309 11.6952C106.687 11.1243 105.752 10.8389 104.507 10.8389H101.16V17.2219H104.507C105.752 17.2219 106.687 16.9495 107.309 16.4046C107.932 15.8338 108.243 15.0424 108.243 14.0304ZM143.627 24.0721V31H120.975V3.75525H143.121V10.6832H130.005V13.8747H141.525V20.4913H130.005V24.0721H143.627ZM165.729 26.2516H155.376L153.546 31H144.205L156.115 3.75525H165.145L177.055 31H167.558L165.729 26.2516ZM163.199 19.635L160.552 12.7849L157.905 19.635H163.199ZM202.846 31L202.768 18.5842L196.852 28.548H192.805L186.889 19.0123V31H178.521V3.75525H186.071L194.945 18.2728L203.586 3.75525H211.136L211.214 31H202.846ZM55.2125 66.6227C52.2804 66.6227 49.6468 66.013 47.3115 64.7934C44.9763 63.5739 43.147 61.8873 41.8236 59.7337C40.5003 57.5541 39.8387 55.1021 39.8387 52.3776C39.8387 49.6532 40.5003 47.2141 41.8236 45.0605C43.147 42.8809 44.9763 41.1813 47.3115 39.9618C49.6468 38.7423 52.2804 38.1325 55.2125 38.1325C58.1445 38.1325 60.7782 38.7423 63.1135 39.9618C65.4487 41.1813 67.278 42.8809 68.6013 45.0605C69.9247 47.2141 70.5863 49.6532 70.5863 52.3776C70.5863 55.1021 69.9247 57.5541 68.6013 59.7337C67.278 61.8873 65.4487 63.5739 63.1135 64.7934C60.7782 66.013 58.1445 66.6227 55.2125 66.6227ZM55.2125 59.1888C56.3542 59.1888 57.3791 58.9164 58.2873 58.3715C59.2214 57.8006 59.9609 57.0092 60.5058 55.9973C61.0507 54.9594 61.3231 53.7528 61.3231 52.3776C61.3231 51.0024 61.0507 49.8088 60.5058 48.7969C59.9609 47.759 59.2214 46.9676 58.2873 46.4227C57.3791 45.8519 56.3542 45.5664 55.2125 45.5664C54.0708 45.5664 53.0329 45.8519 52.0988 46.4227C51.1907 46.9676 50.4641 47.759 49.9192 48.7969C49.3743 49.8088 49.1019 51.0024 49.1019 52.3776C49.1019 53.7528 49.3743 54.9594 49.9192 55.9973C50.4641 57.0092 51.1907 57.8006 52.0988 58.3715C53.0329 58.9164 54.0708 59.1888 55.2125 59.1888ZM103.033 38.7553L91.5125 66H82.4828L70.9621 38.7553H80.8481L87.3479 54.674L94.0034 38.7553H103.033ZM127.169 59.0721V66H104.517V38.7553H126.663V45.6832H113.547V48.8747H125.068V55.4913H113.547V59.0721H127.169ZM142.382 59.1499H139.891V66H130.705V38.7553H143.822C146.339 38.7553 148.531 39.1704 150.399 40.0007C152.268 40.831 153.708 42.0246 154.72 43.5815C155.732 45.1383 156.238 46.9546 156.238 49.0304C156.238 50.9765 155.796 52.676 154.914 54.1291C154.032 55.5821 152.761 56.7368 151.1 57.593L156.821 66H147.013L142.382 59.1499ZM146.974 49.0304C146.974 48.0185 146.663 47.24 146.04 46.6952C145.418 46.1243 144.483 45.8389 143.238 45.8389H139.891V52.2219H143.238C144.483 52.2219 145.418 51.9495 146.04 51.4046C146.663 50.8338 146.974 50.0424 146.974 49.0304ZM159.706 38.7553H168.891V58.8774H181.191V66H159.706V38.7553ZM202.293 61.2516H191.94L190.111 66H180.77L192.68 38.7553H201.709L213.619 66H204.122L202.293 61.2516ZM199.763 54.635L197.117 47.7849L194.47 54.635H199.763ZM231.276 56.114V66H222.091V55.9973L211.816 38.7553H221.507L227.073 48.1742L232.677 38.7553H241.551L231.276 56.114ZM46.8445 80.8778H38.8656V73.7553H64.0087V80.8778H56.0298V101H46.8445V80.8778ZM80.6784 101.623C77.7464 101.623 75.1127 101.013 72.7775 99.7934C70.4422 98.5739 68.6129 96.8873 67.2896 94.7337C65.9663 92.5541 65.3046 90.1021 65.3046 87.3776C65.3046 84.6532 65.9663 82.2141 67.2896 80.0605C68.6129 77.8809 70.4422 76.1813 72.7775 74.9618C75.1127 73.7423 77.7464 73.1325 80.6784 73.1325C83.6105 73.1325 86.2441 73.7423 88.5794 74.9618C90.9147 76.1813 92.744 77.8809 94.0673 80.0605C95.3906 82.2141 96.0522 84.6532 96.0522 87.3776C96.0522 90.1021 95.3906 92.5541 94.0673 94.7337C92.744 96.8873 90.9147 98.5739 88.5794 99.7934C86.2441 101.013 83.6105 101.623 80.6784 101.623ZM80.6784 94.1888C81.8201 94.1888 82.845 93.9164 83.7532 93.3715C84.6873 92.8006 85.4268 92.0092 85.9717 90.9973C86.5166 89.9594 86.789 88.7528 86.789 87.3776C86.789 86.0024 86.5166 84.8088 85.9717 83.7969C85.4268 82.759 84.6873 81.9676 83.7532 81.4227C82.845 80.8519 81.8201 80.5664 80.6784 80.5664C79.5367 80.5664 78.4988 80.8519 77.5647 81.4227C76.6566 81.9676 75.9301 82.759 75.3852 83.7969C74.8403 84.8088 74.5678 86.0024 74.5678 87.3776C74.5678 88.7528 74.8403 89.9594 75.3852 90.9973C75.9301 92.0092 76.6566 92.8006 77.5647 93.3715C78.4988 93.9164 79.5367 94.1888 80.6784 94.1888ZM113.67 101.623C110.738 101.623 108.104 101.013 105.769 99.7934C103.434 98.5739 101.605 96.8873 100.281 94.7337C98.9579 92.5541 98.2963 90.1021 98.2963 87.3776C98.2963 84.6532 98.9579 82.2141 100.281 80.0605C101.605 77.8809 103.434 76.1813 105.769 74.9618C108.104 73.7423 110.738 73.1325 113.67 73.1325C116.602 73.1325 119.236 73.7423 121.571 74.9618C123.906 76.1813 125.736 77.8809 127.059 80.0605C128.382 82.2141 129.044 84.6532 129.044 87.3776C129.044 90.1021 128.382 92.5541 127.059 94.7337C125.736 96.8873 123.906 98.5739 121.571 99.7934C119.236 101.013 116.602 101.623 113.67 101.623ZM113.67 94.1888C114.812 94.1888 115.837 93.9164 116.745 93.3715C117.679 92.8006 118.418 92.0092 118.963 90.9973C119.508 89.9594 119.781 88.7528 119.781 87.3776C119.781 86.0024 119.508 84.8088 118.963 83.7969C118.418 82.759 117.679 81.9676 116.745 81.4227C115.837 80.8519 114.812 80.5664 113.67 80.5664C112.528 80.5664 111.491 80.8519 110.556 81.4227C109.648 81.9676 108.922 82.759 108.377 83.7969C107.832 84.8088 107.56 86.0024 107.56 87.3776C107.56 88.7528 107.832 89.9594 108.377 90.9973C108.922 92.0092 109.648 92.8006 110.556 93.3715C111.491 93.9164 112.528 94.1888 113.67 94.1888ZM132.378 73.7553H141.563V93.8774H153.862V101H132.378V73.7553Z" fill="#FDF8E5"/>
</svg>
