<svg width="206" height="105" viewBox="0 0 206 105" fill="none" xmlns="http://www.w3.org/2000/svg">
<path d="M32 101.35L26.328 101.35L17.1746 91.4534C16.5748 90.8275 16.0532 90.3711 15.6099 90.0843C15.1666 89.7713 14.7754 89.5627 14.4364 89.4584C14.0713 89.3541 13.7323 89.3019 13.4193 89.3019C12.7413 89.3019 12.2197 89.5236 11.8546 89.9669C11.4635 90.4103 11.2679 91.0752 11.2679 91.9619C11.2679 92.7703 11.4895 93.5396 11.9329 94.2698C12.3501 95 12.976 95.5737 13.8105 95.991L10.3291 102.954C8.45144 101.963 6.92587 100.476 5.75235 98.4945C4.57884 96.5125 3.99208 94.0482 3.99208 91.1013C3.99208 88.9368 4.34413 87.0201 5.04824 85.3511C5.75235 83.6821 6.74332 82.3782 8.02115 81.4394C9.29898 80.5006 10.8115 80.0312 12.5587 80.0312C13.4454 80.0312 14.3321 80.1485 15.2187 80.3832C16.1054 80.5918 17.0442 81.0352 18.0352 81.7132C19 82.3912 20.0823 83.3952 21.2819 84.7252L28.0492 92.1575L24.8416 93.6048L24.8415 79.4053L32 79.4053L32 101.35ZM32.6259 65.1119C32.6259 67.5372 32.0652 69.6886 30.9438 71.5662C29.8225 73.4178 28.1926 74.8782 26.0542 75.9474C23.9158 76.9905 21.334 77.5121 18.309 77.5121C15.2839 77.5121 12.7022 76.9905 10.5638 75.9474C8.42536 74.8782 6.79548 73.4178 5.67412 71.5663C4.55276 69.6886 3.99208 67.5372 3.99208 65.1119C3.99208 62.6866 4.55276 60.5482 5.67412 58.6967C6.79548 56.8191 8.42536 55.3587 10.5638 54.3156C12.7022 53.2464 15.2839 52.7118 18.309 52.7118C21.334 52.7118 23.9158 53.2464 26.0542 54.3156C28.1926 55.3587 29.8225 56.8191 30.9438 58.6967C32.0652 60.5482 32.6259 62.6866 32.6259 65.1119ZM25.2327 65.1119C25.2327 64.5121 25.0241 63.9775 24.6068 63.5081C24.1896 63.0387 23.4724 62.6736 22.4554 62.4128C21.4384 62.126 20.0562 61.9825 18.309 61.9825C16.5357 61.9825 15.1535 62.126 14.1626 62.4128C13.1455 62.6736 12.4284 63.0387 12.0111 63.5081C11.5939 63.9775 11.3852 64.5121 11.3852 65.1119C11.3852 65.7117 11.5939 66.2463 12.0111 66.7157C12.4284 67.1851 13.1455 67.5633 14.1626 67.8501C15.1535 68.1109 16.5357 68.2413 18.309 68.2413C20.0562 68.2413 21.4384 68.1109 22.4554 67.8501C23.4724 67.5633 24.1896 67.1851 24.6068 66.7157C25.0241 66.2463 25.2327 65.7117 25.2327 65.1119ZM32 50.4671L26.328 50.4671L17.1746 40.5704C16.5748 39.9446 16.0532 39.4882 15.6099 39.2013C15.1666 38.8884 14.7754 38.6798 14.4364 38.5755C14.0713 38.4712 13.7323 38.419 13.4193 38.419C12.7413 38.419 12.2197 38.6407 11.8546 39.084C11.4635 39.5273 11.2679 40.1923 11.2679 41.079C11.2679 41.8874 11.4895 42.6567 11.9329 43.3869C12.3501 44.1171 12.976 44.6908 13.8105 45.108L10.3291 52.0709C8.45144 51.0799 6.92587 49.5935 5.75235 47.6115C4.57884 45.6296 3.99208 43.1652 3.99208 40.2184C3.99208 38.0539 4.34413 36.1372 5.04824 34.4682C5.75235 32.7992 6.74332 31.4953 8.02115 30.5564C9.29898 29.6176 10.8115 29.1482 12.5587 29.1482C13.4454 29.1482 14.3321 29.2656 15.2187 29.5003C16.1054 29.7089 17.0442 30.1522 18.0352 30.8303C19 31.5083 20.0823 32.5123 21.2819 33.8423L28.0492 41.2746L24.8415 42.7219L24.8415 28.5223L32 28.5223L32 50.4671ZM32.6259 16.7716C32.6259 18.6492 32.4172 20.5529 32 22.4827C31.5827 24.4125 30.9699 26.1076 30.1615 27.5679L23.3551 24.4386C24.0331 23.2651 24.5416 22.0394 24.8807 20.7616C25.1936 19.4837 25.3501 18.2711 25.3501 17.1237C25.3501 16.0805 25.1675 15.2199 24.8024 14.5419C24.4373 13.8639 23.9027 13.5249 23.1986 13.5249C22.8075 13.5249 22.4684 13.6422 22.1816 13.8769C21.8686 14.1116 21.6339 14.5289 21.4775 15.1287C21.321 15.7024 21.2428 16.5499 21.2428 17.6713L21.2428 25.6121L4.61795 24.243L4.61795 6.05348L11.5808 6.05348L11.5808 20.9963L7.62998 16.3413L18.2307 17.1628L14.2799 21.8177L14.2799 15.4416C14.2799 12.7295 14.6711 10.565 15.4534 8.94816C16.2358 7.30523 17.2919 6.11868 18.6219 5.38849C19.9258 4.63222 21.3862 4.25409 23.003 4.25409C24.6199 4.25409 26.1715 4.69742 27.658 5.58408C29.1184 6.44465 30.318 7.80072 31.2568 9.65227C32.1695 11.4777 32.6259 13.8508 32.6259 16.7716Z" fill="#FDF8E5"/>
<path d="M40.9285 31V3.75525H48.4791L59.377 21.5422H55.4071L65.9936 3.75525H73.5443L73.6222 31H65.2541L65.1763 16.3657H66.4996L59.2603 28.548H55.2125L47.6618 16.3657H49.2965V31H40.9285ZM75.1051 31L87.015 3.75525H96.0446L107.954 31H98.4578L89.6616 8.11441H93.2423L84.4462 31H75.1051ZM82.1887 26.2516L84.524 19.635H97.0566L99.3919 26.2516H82.1887ZM115.336 31V10.8778H107.358V3.75525H132.501V10.8778H124.522V31H115.336ZM134.886 31V3.75525H148.003C150.546 3.75525 152.738 4.17041 154.58 5.00073C156.449 5.83104 157.889 7.02462 158.901 8.58146C159.913 10.1124 160.419 11.9287 160.419 14.0304C160.419 16.1322 159.913 17.9485 158.901 19.4794C157.889 20.9843 156.449 22.139 154.58 22.9433C152.738 23.7477 150.546 24.1499 148.003 24.1499H139.985L144.072 20.3745V31H134.886ZM151.194 31L144.5 21.0751H154.23L161.002 31H151.194ZM144.072 21.3865L139.985 17.2219H147.419C148.69 17.2219 149.624 16.9365 150.221 16.3657C150.844 15.7948 151.155 15.0164 151.155 14.0304C151.155 13.0444 150.844 12.266 150.221 11.6952C149.624 11.1243 148.69 10.8389 147.419 10.8389H139.985L144.072 6.67433V21.3865ZM163.887 31V3.75525H173.072V31H163.887ZM174.964 31L187.108 14.0304L187.069 20.4524L175.315 3.75525H185.629L192.479 13.8747L188.081 13.9137L194.775 3.75525H204.661L192.907 20.1021V13.719L205.245 31H194.736L187.886 20.4135L192.129 20.3745L185.434 31H174.964ZM55.0568 66.6227C52.8513 66.6227 50.8144 66.2854 48.9462 65.6108C47.1039 64.9102 45.4952 63.9242 44.12 62.6528C42.7707 61.3814 41.7199 59.8764 40.9674 58.1379C40.2149 56.3995 39.8387 54.4794 39.8387 52.3776C39.8387 50.2759 40.2149 48.3558 40.9674 46.6173C41.7199 44.8788 42.7837 43.3739 44.1589 42.1025C45.5341 40.831 47.1558 39.858 49.024 39.1834C50.9182 38.4828 52.994 38.1325 55.2514 38.1325C57.9499 38.1325 60.3501 38.5866 62.4518 39.4948C64.5795 40.4029 66.3309 41.7003 67.7062 43.3869L61.8291 48.5634C60.9728 47.5774 60.0387 46.8379 59.0268 46.3449C58.0408 45.8259 56.938 45.5664 55.7185 45.5664C54.7065 45.5664 53.7854 45.7221 52.9551 46.0335C52.1507 46.3449 51.4631 46.7989 50.8923 47.3957C50.3214 47.9925 49.8803 48.7061 49.5689 49.5364C49.2576 50.3667 49.1019 51.3138 49.1019 52.3776C49.1019 53.3896 49.2576 54.3237 49.5689 55.1799C49.8803 56.0103 50.3214 56.7238 50.8923 57.3206C51.4631 57.9174 52.1377 58.3844 52.9162 58.7218C53.7205 59.0331 54.6157 59.1888 55.6017 59.1888C56.6396 59.1888 57.6515 59.0202 58.6375 58.6828C59.6235 58.3196 60.6744 57.7098 61.7902 56.8535L66.9277 63.1588C65.2671 64.2745 63.3729 65.1308 61.2453 65.7276C59.1176 66.3243 57.0548 66.6227 55.0568 66.6227ZM58.9489 61.9911V51.6381H66.9277V63.1588L58.9489 61.9911ZM79.2484 48.8747H91.3918V55.4913H79.2484V48.8747ZM79.8711 59.0721H93.4935V66H70.8414V38.7553H92.9875V45.6832H79.8711V59.0721ZM111.158 66.6227C108.952 66.6227 106.915 66.2854 105.047 65.6108C103.205 64.9102 101.596 63.9242 100.221 62.6528C98.8718 61.3814 97.8209 59.8764 97.0684 58.1379C96.316 56.3995 95.9397 54.4794 95.9397 52.3776C95.9397 50.2759 96.316 48.3558 97.0684 46.6173C97.8209 44.8788 98.8848 43.3739 100.26 42.1025C101.635 40.831 103.257 39.858 105.125 39.1834C107.019 38.4828 109.095 38.1325 111.352 38.1325C114.051 38.1325 116.451 38.5866 118.553 39.4948C120.681 40.4029 122.432 41.7003 123.807 43.3869L117.93 48.5634C117.074 47.5774 116.14 46.8379 115.128 46.3449C114.142 45.8259 113.039 45.5664 111.82 45.5664C110.808 45.5664 109.886 45.7221 109.056 46.0335C108.252 46.3449 107.564 46.7989 106.993 47.3957C106.422 47.9925 105.981 48.7061 105.67 49.5364C105.359 50.3667 105.203 51.3138 105.203 52.3776C105.203 53.3896 105.359 54.3237 105.67 55.1799C105.981 56.0103 106.422 56.7238 106.993 57.3206C107.564 57.9174 108.239 58.3844 109.017 58.7218C109.822 59.0331 110.717 59.1888 111.703 59.1888C112.741 59.1888 113.753 59.0202 114.739 58.6828C115.725 58.3196 116.775 57.7098 117.891 56.8535L123.029 63.1588C121.368 64.2745 119.474 65.1308 117.346 65.7276C115.219 66.3243 113.156 66.6227 111.158 66.6227ZM115.05 61.9911V51.6381H123.029V63.1588L115.05 61.9911ZM135.349 48.8747H147.493V55.4913H135.349V48.8747ZM135.972 59.0721H149.595V66H126.942V38.7553H149.089V45.6832H135.972V59.0721ZM153.131 66V38.7553H160.681L174.537 55.3356H171.034V38.7553H179.986V66H172.435L158.58 49.4196H162.082V66H153.131ZM37.9705 101L49.8803 73.7553H58.91L70.8198 101H61.3231L52.5269 78.1144H56.1077L47.3115 101H37.9705ZM45.0541 96.2516L47.3894 89.635H59.9219L62.2572 96.2516H45.0541ZM72.2858 101V73.7553H81.4711V93.8774H93.7702V101H72.2858ZM96.3074 101V73.7553H105.493V93.8774H117.792V101H96.3074ZM128.736 83.8747H140.879V90.4913H128.736V83.8747ZM129.359 94.0721H142.981V101H120.329V73.7553H142.475V80.6832H129.359V94.0721Z" fill="#FDF8E5"/>
</svg>
